# xmcd
#
# Track frame offsets:
#	150
#	21296
#	38333
#	60932
#	80231
#	100327
#	119895
#	135599
#	156528
#	176939
#	199307
#	217000
#
# Disc length: 3234 seconds
#
# Revision: 523477015
# Processed by: cddbd v1.5.2PL0 Copyright (c) Steve Scherf et al.
# Submitted via: EZCDAudioConverter 8.0.2.1
#
DISCID=b40ca00c
DTITLE=Nguyễn Phi Hùng - Vol 04. Only You
DYEAR=2001
DGENRE=
TTITLE0=Dáng em
TTITLE1=Chiều xưa
TTITLE2=Dù chẳng còn chi nữa
TTITLE3=Mẹ ơi con biết yêu
TTITLE4=Tình muôn kiếp
TTITLE5=Ngày xưa
TTITLE6=Chỉ một người
TTITLE7=Giấy trắng
TTITLE8=Cuốn trong cơn mơ
TTITLE9=Em về thoáng qua
TTITLE10=Bước chân trong mưa
TTITLE11=Mầm côi
EXTD=
EXTT0=
EXTT1=
EXTT2=
EXTT3=
EXTT4=
EXTT5=
EXTT6=
EXTT7=
EXTT8=
EXTT9=
EXTT10=
EXTT11=
PLAYORDER=
